<?xml version="1.0" encoding="UTF-8"?>
<svg id="Layer_1" data-name="Layer 1" xmlns="http://www.w3.org/2000/svg" xmlns:xlink="http://www.w3.org/1999/xlink" viewBox="0 0 283.46 283.46">
  <defs>
    <style>
      .cls-1 {
        fill: url(#linear-gradient-4);
      }

      .cls-1, .cls-2, .cls-3, .cls-4, .cls-5, .cls-6, .cls-7, .cls-8 {
        fill-rule: evenodd;
      }

      .cls-9 {
        fill: url(#linear-gradient-2);
      }

      .cls-2 {
        fill: url(#linear-gradient-9);
      }

      .cls-3 {
        fill: url(#linear-gradient-6);
      }

      .cls-4 {
        fill: url(#linear-gradient-5);
      }

      .cls-5 {
        fill: #14f195;
      }

      .cls-10 {
        fill: url(#linear-gradient);
      }

      .cls-6 {
        fill: url(#linear-gradient-7);
      }

      .cls-7 {
        fill: url(#linear-gradient-8);
      }

      .cls-8 {
        fill: url(#linear-gradient-3);
      }
    </style>
    <linearGradient id="linear-gradient" x1="0" y1="141.44" x2="283.46" y2="141.44" gradientTransform="translate(0 283.17) scale(1 -1)" gradientUnits="userSpaceOnUse">
      <stop offset=".08" stop-color="#9945ff"/>
      <stop offset=".3" stop-color="#8752f3"/>
      <stop offset=".5" stop-color="#5497d5"/>
      <stop offset=".6" stop-color="#43b4ca"/>
      <stop offset=".72" stop-color="#28e0b9"/>
      <stop offset=".97" stop-color="#19fb9b"/>
    </linearGradient>
    <linearGradient id="linear-gradient-2" x1="213.71" y1="104.19" x2="307.98" y2="-53.21" gradientTransform="translate(-26.75 185.27) scale(.75 -.75)" gradientUnits="userSpaceOnUse">
      <stop offset="0" stop-color="#000" stop-opacity=".2"/>
      <stop offset="1" stop-color="#36343d" stop-opacity=".02"/>
    </linearGradient>
    <linearGradient id="linear-gradient-3" x1="163.87" y1="116.57" x2="170.99" y2="116.57" xlink:href="#linear-gradient"/>
    <linearGradient id="linear-gradient-4" x1="167.08" y1="111.17" x2="186.87" y2="111.17" xlink:href="#linear-gradient"/>
    <linearGradient id="linear-gradient-5" x1="171.33" y1="105.45" x2="185.72" y2="105.45" xlink:href="#linear-gradient"/>
    <linearGradient id="linear-gradient-6" x1="169.41" y1="126.91" x2="175.93" y2="126.91" xlink:href="#linear-gradient"/>
    <linearGradient id="linear-gradient-7" x1="164.09" y1="124.27" x2="166.83" y2="124.27" xlink:href="#linear-gradient"/>
    <linearGradient id="linear-gradient-8" x1="149.6" y1="144.71" x2="184.67" y2="144.71" xlink:href="#linear-gradient"/>
    <linearGradient id="linear-gradient-9" x1="175.41" y1="129.16" x2="184.12" y2="129.16" xlink:href="#linear-gradient"/>
  </defs>
  <circle class="cls-10" cx="141.73" cy="141.73" r="141.73"/>
  <path d="m129.42,87.28h-39.81c-7.37,0-13.27,5.91-13.27,13.27v79.63c0,7.33,5.94,13.27,13.27,13.27h106.17c7.33,0,13.27-5.94,13.27-13.27h0v-66.36c0-7.37-5.97-13.27-13.27-13.27h-53.08l-13.27-13.27Z"/>
  <path class="cls-9" d="m206.02,105.4c1.88,2.29,3.02,5.22,3.02,8.43v66.35c0,7.33-5.94,13.27-13.27,13.27h-106.17c-3.32,0-6.51-1.25-8.95-3.49h0s89.13,89.14,89.13,89.14c52.41-10.63,94.38-49.85,108.52-101.43l-72.26-72.27h0Z"/>
  <g>
    <g id="right">
      <path class="cls-5" d="m189.13,153.31c-1.17.64-2.39,2.24-2.48,5.28-.5.17-.73.51-2.01-1.05,1.5,2.28,2.5,3.06,2.99,2.33-.3-3.24.2-5.42,1.5-6.56Z"/>
      <path class="cls-5" d="m194.21,156.52l-.31,5.97-1.35-1.51c.62,1.03,1.27,2.25,1.94,3.23l-.27-7.69h-.01Z"/>
      <path class="cls-5" d="m190.47,168.98l3.49,9.29c.11-1.93.35-4.78.74-8.55-.35,1.81-.7,3.61-1.06,5.42l-3.18-6.16h.01Z"/>
      <path class="cls-5" d="m184.99,168.03c1.52,5.17,3.03,10.35,4.56,15.52l1.93-3.26c-.25.23-1.67,1.42-1.73,1.47,0,0-1.59-3.86-4.76-13.73h0Z"/>
      <path class="cls-5" d="m190.87,143.37c-5.31-8.29-11.59-25.96-.24-15.92-1.04-3.84-2.89-5.41-4.89-7.1,1.82,1.96,3.02,3.46,3.48,4.99-1.06-1.02-2.82-1.87-4.2-1.77.16-.6.74-.99,1.16-1.14-3.04.14-3.77,3.71-1.88,9.14-1.38-1.5-2.27-3.5-3.05-5.42.37,4.43,6.36,13.69,9.62,17.22h0Z"/>
      <path class="cls-5" d="m185.18,143.74c11.98,1.04,20.89,4.71,20.89,8.08,0,4.35-7.8,5.93-10.88,7.15,8.25-1.47,12.88-3.54,12.88-7.06s-9.82-7.39-22.88-8.18h-.01Z"/>
    </g>
    <g id="left">
      <path class="cls-8" d="m164.61,178.27l6.38-16.85-2.66-6.5-.81,6.37-3.65,8.44c.36,2.87.55,5.66.74,8.55h0Z"/>
      <path class="cls-1" d="m180.39,161.28l-1.1-.82-7.58,2.11-4.63,17.71c.65,1.09,1.29,2.17,1.94,3.26l5.77-19.68,4.49-3.4,7.59,2.1-6.49-1.28h0Z"/>
      <path class="cls-4" d="m178.91,166.35c1.06.24,1.78.08,2.15-.5-.73.41-1.49.36-2.17-.14-.75.59-1.29.45-2.13.14l-.5-.2c-.28-.1-.61-.22-.97-.33l-3.96,20.49c2.68,1.54,5.23,2.89,7.96,4.3l6.43-3.33c-2.23.83-4.14,1.53-6.42,2.38l-.39-22.81h0Z"/>
      <path class="cls-3" d="m175.71,152.97c-.51-.06-7.24-.26-6.19.59,2.17,1.72,1.18,5.74,1.45,5.94,1.47,1.11,5.98-6.42,4.74-6.53h0Z"/>
      <polygon class="cls-6" points="164.09 164.21 166.83 159.27 166.72 153.58 164.36 156.52 164.17 162.15 164.15 162.46 164.14 162.8 164.09 164.21"/>
      <path class="cls-7" d="m183.67,139.98c-3.82.45-7.78,1.08-11.49,2.07-1.55.41-3.12.91-4.59,1.52-.13.05-.04.02.04,0,2.6-.37,5.3-.64,7.92-.71,1.13-.03,2.49-.03,3.6.14.1,0,.19.03.29.05-8.52.53-44.05,6.1-16.96,15.91-8.25-1.47-12.82-3.54-12.88-7.06-.06-4.67,10.84-7.05,14.67-7.78.43-.08.86-.23,1.28-.34.16-.04.22-.06.37-.13.34-.15.17-.14-.09-.14-.21,0-.64,0-.46-.31.09-.15.21-.33.31-.48,1.16-1.83,2.12-3.77,3.01-5.73.13-.29,3.4-8.36,4.58-11.04.13-.3.27-.62.41-.91.17-.35.83-1.72,1.08-2.16.79-1.44,1.89-3.13,3.29-4.11,2.26-1.57,4.58-.72,6.62.72-1.82-.97-4.1-1.53-5.69.12-.66.68-1.05,1.63-1.26,2.52-.09.36.13.37-.11.86-.11.22-.1.31-.12.55-.19,2,.1,4.18.56,6.14-.92-.63-1.47-1.22-1.64-1.78-.3,2.69,1.13,4.29,4.29,4.81-4.37.82-7.31,3.23-8.84,7.22,3.89-.79,7.91-.79,11.81,0h0v.04Z"/>
      <path class="cls-2" d="m175.89,158.32c1.11-.05.64-.89.87-2.04-.32.32-2.24,2.04-.87,2.04h0Zm2.23-2.08c-.99,1.06-.51,2.38,1.03,2.42,1.33.03,3.16-.52,3.71-.47.21.02.39.16.48.36.09.2.06.44-.06.62.59-.3.93-.99.82-1.68-.2-1.25-1.04-.98-1.87-1.71-1.81-1.87-1.73-5.92-1.99-6.93-.07.31-.12.74-.16,1.23-.19,1.87-.41,4.73-1.95,6.16h-.01Z"/>
    </g>
  </g>
</svg>