<?xml version="1.0" encoding="UTF-8"?>
<svg xmlns="http://www.w3.org/2000/svg" xmlns:xlink="http://www.w3.org/1999/xlink" viewBox="0 0 669.07 501">
  <defs>
    <style>
      .cls-1 {
        fill: url(#linear-gradient-4);
      }

      .cls-1, .cls-2, .cls-3, .cls-4, .cls-5, .cls-6, .cls-7, .cls-8 {
        fill-rule: evenodd;
      }

      .cls-2 {
        fill: url(#linear-gradient-2);
      }

      .cls-3 {
        fill: url(#linear-gradient);
      }

      .cls-4 {
        fill: url(#linear-gradient-6);
      }

      .cls-5 {
        fill: url(#linear-gradient-5);
      }

      .cls-6 {
        fill: #14f195;
      }

      .cls-9 {
        fill: #0d1117;
        stroke: #000;
        stroke-miterlimit: 10;
      }

      .cls-7 {
        fill: url(#linear-gradient-7);
      }

      .cls-8 {
        fill: url(#linear-gradient-3);
      }
    </style>
    <linearGradient id="linear-gradient" x1="149.15" y1="335.48" x2="197.39" y2="335.48" gradientUnits="userSpaceOnUse">
      <stop offset=".08" stop-color="#9945ff"/>
      <stop offset=".3" stop-color="#8752f3"/>
      <stop offset=".5" stop-color="#5497d5"/>
      <stop offset=".6" stop-color="#43b4ca"/>
      <stop offset=".72" stop-color="#28e0b9"/>
      <stop offset=".97" stop-color="#19fb9b"/>
    </linearGradient>
    <linearGradient id="linear-gradient-2" x1="170.92" y1="372.16" x2="304.98" y2="372.16" xlink:href="#linear-gradient"/>
    <linearGradient id="linear-gradient-3" x1="199.68" y1="410.89" x2="297.1" y2="410.89" xlink:href="#linear-gradient"/>
    <linearGradient id="linear-gradient-4" x1="186.68" y1="265.51" x2="230.78" y2="265.51" xlink:href="#linear-gradient"/>
    <linearGradient id="linear-gradient-5" x1="150.67" y1="283.38" x2="169.22" y2="283.38" xlink:href="#linear-gradient"/>
    <linearGradient id="linear-gradient-6" x1="52.54" y1="145.05" x2="290.11" y2="145.05" xlink:href="#linear-gradient"/>
    <linearGradient id="linear-gradient-7" x1="227.28" y1="250.28" x2="286.26" y2="250.28" xlink:href="#linear-gradient"/>
  </defs>
  <g id="Layer_1" data-name="Layer 1">
    <rect class="cls-9" x=".5" y=".5" width="500" height="500"/>
  </g>
  <g id="Layer_2" data-name="Layer 2">
    <g>
      <g id="right">
        <path class="cls-6" d="m320.22,245.56c-7.95,4.36-16.19,15.14-16.77,35.74-3.39,1.17-4.98,3.45-13.65-7.1,10.19,15.45,16.93,20.72,20.25,15.77-2.04-21.91,1.35-36.73,10.16-44.42Z"/>
        <path class="cls-6" d="m354.61,267.32l-2.13,40.45-9.17-10.24c4.21,7.01,8.62,15.22,13.13,21.86l-1.83-52.07Z"/>
        <path class="cls-6" d="m329.28,351.66l23.64,62.89c.71-13.04,2.38-32.35,5.04-57.91-2.4,12.23-4.76,24.46-7.16,36.7l-21.52-41.68Z"/>
        <path class="cls-6" d="m292.19,345.22c10.3,35.01,20.49,70.1,30.86,105.08l13.09-22.08c-1.72,1.53-11.3,9.61-11.71,9.96,0,0-10.79-26.13-32.24-92.96Z"/>
        <path class="cls-6" d="m332,178.22c-35.93-56.14-78.47-175.82-1.6-107.81-7.04-26.01-19.56-36.62-33.11-48.06,12.35,13.28,20.42,23.43,23.55,33.77-7.16-6.91-19.07-12.67-28.47-12,1.07-4.09,5.01-6.72,7.87-7.74-20.61.97-25.54,25.11-12.71,61.91-9.34-10.19-15.38-23.7-20.65-36.7,2.53,30,43.09,92.7,65.12,116.62Z"/>
        <path class="cls-6" d="m293.49,180.71c81.15,7.06,141.47,31.87,141.47,54.75,0,29.43-52.85,40.16-73.69,48.44,55.89-9.95,87.19-23.94,87.19-47.79s-66.48-50.05-154.97-55.4Z"/>
      </g>
      <g id="left">
        <path class="cls-3" d="m154.19,414.56l43.2-114.13-18-44.02-5.49,43.11-24.75,57.13c2.41,19.46,3.72,38.31,5.04,57.91h0Z"/>
        <path class="cls-2" d="m261.05,299.55l-7.47-5.54-51.31,14.27-31.35,119.93c4.39,7.36,8.76,14.73,13.13,22.08l39.1-133.27,30.44-23.01,51.39,14.19-43.93-8.65Z"/>
        <path class="cls-8" d="m250.99,333.88c7.16,1.65,12.03.54,14.56-3.35-4.98,2.74-10.06,2.44-14.69-.92-5.08,3.97-8.75,3.05-14.41.92l-3.39-1.33c-1.91-.69-4.12-1.46-6.56-2.22l-26.81,138.73c18.17,10.45,35.43,19.56,53.91,29.1l43.52-22.53c-15.07,5.61-28.03,10.39-43.45,16.1l-2.66-154.49Z"/>
        <path class="cls-1" d="m229.32,243.22c-3.45-.37-49.01-1.73-41.89,4.02,14.69,11.66,7.98,38.87,9.82,40.23,9.95,7.52,40.5-43.49,32.07-44.24h0Z"/>
        <polygon class="cls-5" points="150.67 319.39 169.22 285.9 168.47 247.37 152.47 267.32 151.16 305.43 151.08 307.52 150.97 309.82 150.67 319.39"/>
        <path class="cls-4" d="m283.27,155.25c-25.89,3.08-52.72,7.31-77.84,14.02-10.48,2.79-21.11,6.15-31.06,10.31-.85.35-.26.15.25.09,17.58-2.53,35.88-4.36,53.63-4.8,7.64-.19,16.85-.19,24.39.95.66.1,1.3.2,1.95.32-57.72,3.58-298.32,41.34-114.84,107.77-55.89-9.95-86.81-23.94-87.21-47.79-.4-31.61,73.39-47.77,99.32-52.68,2.9-.55,5.8-1.55,8.7-2.27,1.11-.26,1.51-.42,2.53-.87,2.33-1.01,1.15-.92-.58-.95-1.44-.01-4.37.03-3.14-2.07.62-1.05,1.44-2.22,2.1-3.28,7.86-12.42,14.36-25.51,20.41-38.78.87-1.93,23.02-56.59,31.04-74.74.89-2.01,1.81-4.2,2.79-6.16,1.15-2.34,5.64-11.62,7.29-14.63,5.35-9.74,12.8-21.22,22.27-27.81,15.33-10.6,30.98-4.88,44.84,4.9-12.3-6.56-27.79-10.39-38.54.84-4.45,4.63-7.13,11.01-8.56,17.05-.58,2.44.86,2.53-.75,5.85-.71,1.47-.66,2.08-.82,3.69-1.31,13.57.69,28.32,3.76,41.58-6.26-4.25-9.95-8.27-11.08-12.06-2.07,18.21,7.64,29.08,29.08,32.61-29.57,5.55-49.53,21.86-59.88,48.92,26.35-5.32,53.6-5.32,79.95,0h0Z"/>
        <path class="cls-7" d="m230.57,279.48c7.54-.34,4.3-6.02,5.92-13.82-2.17,2.14-15.17,13.82-5.92,13.82h0Zm15.07-14.09c-6.74,7.17-3.45,16.11,6.96,16.36,8.97.21,21.39-3.52,25.13-3.19,1.4.14,2.65,1.08,3.23,2.47.58,1.38.42,2.99-.41,4.23,4.02-2.01,6.3-6.67,5.57-11.38-1.32-8.47-7.04-6.62-12.69-11.61-12.23-12.64-11.73-40.1-13.5-46.96-.46,2.09-.78,4.99-1.11,8.35-1.27,12.63-2.81,32.02-13.18,41.73h0Z"/>
      </g>
    </g>
  </g>
</svg>