<?xml version="1.0" encoding="UTF-8"?>
<svg id="Layer_1" data-name="Layer 1" xmlns="http://www.w3.org/2000/svg" viewBox="0 0 21.47 17.34">
  <defs>
    <style>
      .cls-1 {
        fill: #fff;
      }

      .cls-2 {
        fill: #5865f2;
      }
    </style>
  </defs>
  <path class="cls-2" d="m17,16H2c-1.1,0-2-.9-2-2V2C0,.89.89,0,2,0h6l2,2h7c1.1,0,2,.9,2,2H2v10l2.14-8h17.07l-2.28,8.5c-.23.87-1.01,1.5-1.93,1.5Z"/>
  <g id="_图层_2" data-name="图层 2">
    <g id="Discord_Logos" data-name="Discord Logos">
      <g id="Discord_Logo_-_Large_-_White" data-name="Discord Logo - Large - White">
        <path class="cls-1" d="m19.58,7.47c-.81-.37-1.66-.63-2.54-.78-.12.21-.23.44-.33.66-.93-.14-1.89-.14-2.82,0-.1-.23-.21-.45-.33-.66-.88.15-1.73.41-2.54.78-1.61,2.38-2.04,4.7-1.83,6.99h0c.94.7,2,1.23,3.12,1.56.25-.34.48-.7.67-1.08-.36-.14-.72-.3-1.05-.5.09-.06.17-.13.26-.19,1.97.93,4.26.93,6.23,0,.08.07.17.13.26.19-.34.2-.69.37-1.05.5.19.38.42.74.67,1.08,1.12-.34,2.18-.87,3.12-1.56h0c.26-2.65-.44-4.95-1.83-6.99Zm-6.32,5.58c-.61,0-1.11-.55-1.11-1.23s.48-1.23,1.11-1.23,1.12.56,1.11,1.23-.49,1.23-1.11,1.23Zm4.09,0c-.61,0-1.11-.55-1.11-1.23s.48-1.23,1.11-1.23,1.12.56,1.11,1.23-.49,1.23-1.11,1.23Z"/>
      </g>
    </g>
  </g>
</svg>