<?xml version="1.0" encoding="UTF-8"?>
<svg id="Layer_1" data-name="Layer 1" xmlns="http://www.w3.org/2000/svg" viewBox="0 0 21.65 17.82">
  <defs>
    <style>
      .cls-1 {
        fill: #fff;
      }

      .cls-2 {
        fill: #00cfff;
      }
    </style>
  </defs>
  <path class="cls-2" d="m17,16H2c-1.1,0-2-.9-2-2V2C0,.89.89,0,2,0h6l2,2h7c1.1,0,2,.9,2,2H2v10l2.14-8h17.07l-2.28,8.5c-.23.87-1.01,1.5-1.93,1.5Z"/>
  <path class="cls-1" d="m21.25,9.29l-6.35-1.95c-.35-.11-.72-.11-1.06,0l-6.35,1.95c-.54.16-.54.87,0,1.04l1.11.34c-.24.3-.39.67-.41,1.07-.22.13-.37.35-.37.62,0,.25.13.45.32.58l-.58,2.61c-.05.23.12.44.36.44h1.28c.23,0,.41-.22.36-.44l-.58-2.61c.19-.13.32-.34.32-.58,0-.26-.15-.48-.36-.61.02-.34.19-.64.47-.84l4.45,1.37c.21.06.6.14,1.06,0l6.35-1.95c.54-.16.54-.87,0-1.04h0Zm-6.13,3.68c-.65.2-1.2.09-1.49,0l-3.3-1.01-.32,2.58c0,.8,1.96,1.46,4.37,1.46s4.37-.65,4.37-1.46l-.32-2.58-3.3,1.01Z"/>
</svg>