<?xml version="1.0" encoding="UTF-8"?>
<svg id="Layer_1" data-name="Layer 1" xmlns="http://www.w3.org/2000/svg" viewBox="0 0 21.47 17.82">
  <defs>
    <style>
      .cls-1 {
        fill: #fff;
      }

      .cls-2 {
        fill: #0d9373;
      }
    </style>
  </defs>
  <path class="cls-2" d="m17,16H2c-1.1,0-2-.9-2-2V2C0,.89.89,0,2,0h6l2,2h7c1.1,0,2,.9,2,2H2v10l2.14-8h17.07l-2.28,8.5c-.23.87-1.01,1.5-1.93,1.5Z"/>
  <path class="cls-1" d="m17.5,17.82c2.01,0,3.65-1.64,3.66-3.64l.02-2.95-.03-.16-.1-.2-.16-.13c-.21-.17-1.29.01-1.58-.25-.21-.19-.24-.53-.3-.99-.12-.89-.19-.94-.33-1.24-.51-1.07-1.88-1.88-2.83-1.99h-2.56c-2.01,0-3.66,1.64-3.66,3.65v4.25c0,2,1.65,3.64,3.66,3.64h4.2Zm-4.16-8.56h2.03c.39,0,.7.31.7.7s-.31.7-.7.7h-2.03c-.39,0-.7-.32-.7-.7,0-.38.31-.7.7-.7Zm-.7,4.87c0-.38.31-.69.7-.69h4.12c.38,0,.7.31.7.69s-.31.69-.7.69h-4.12c-.39,0-.7-.32-.7-.69Z"/>
</svg>