<?xml version="1.0" encoding="UTF-8"?>
<svg id="Layer_1" data-name="Layer 1" xmlns="http://www.w3.org/2000/svg" viewBox="0 0 21.91 17.34">
  <defs>
    <style>
      .cls-1 {
        fill: #fff;
      }

      .cls-2 {
        fill: #37474f;
      }

      .cls-3 {
        fill: #e57373;
      }

      .cls-4 {
        fill: #ffc107;
      }

      .cls-5 {
        fill: #00cfff;
      }

      .cls-6 {
        fill: #b0bec5;
      }

      .cls-7 {
        fill: #ff9800;
      }
    </style>
  </defs>
  <path class="cls-5" d="m8,0H2C.89,0,0,.89,0,2v12c0,1.1.9,2,2,2h16c1.1,0,2-.9,2-2V4c0-1.1-.9-2-2-2h-8l-2-2Z"/>
  <g>
    <path class="cls-1" d="m19.68,12.03v1.5c0,.63-.22,1.16-.67,1.61-.44.44-.98.67-1.61.67h-6.57c-.63,0-1.16-.22-1.61-.67-.44-.44-.67-.98-.67-1.61v-6.57c0-.63.22-1.16.67-1.61.44-.44.98-.67,1.61-.67h6.57c.33,0,.64.07.92.2.08.04.13.1.14.18.02.09,0,.17-.07.23l-.39.39c-.07.07-.16.09-.25.06-.12-.03-.24-.05-.36-.05h-6.57c-.35,0-.64.12-.89.37-.25.25-.37.54-.37.89v6.57c0,.35.12.64.37.89.25.25.54.37.89.37h6.57c.35,0,.64-.12.89-.37.25-.25.37-.54.37-.89v-.99c0-.07.02-.13.07-.17l.51-.51c.08-.08.17-.1.28-.06.11.04.16.12.16.23h0Z"/>
    <path class="cls-3" d="m20.46,7.54l-.96-.96c-.14-.14-.38-.14-.55,0l-.45.45,1.51,1.51.45-.45c.14-.14.14-.38,0-.55Z"/>
    <path class="cls-7" d="m13.51,12.02l4.22-4.22,1.51,1.51-4.22,4.22-1.51-1.51Z"/>
    <path class="cls-6" d="m20.01,8.55l-.75.75-1.51-1.51.75-.75,1.51,1.51Z"/>
    <path class="cls-4" d="m13.52,12.04l-.52,1.99,1.99-.52-1.48-1.48Z"/>
    <path class="cls-2" d="m13.25,13l-.24,1.03,1.03-.24-.79-.79Z"/>
  </g>
</svg>