<?xml version="1.0" encoding="UTF-8"?>
<svg id="Layer_1" data-name="Layer 1" xmlns="http://www.w3.org/2000/svg" viewBox="0 0 21.68 18.78">
  <defs>
    <style>
      .cls-1 {
        fill: #fff;
      }

      .cls-2 {
        fill: #5865f2;
      }
    </style>
  </defs>
  <path class="cls-2" d="m8,0H2C.89,0,0,.89,0,2v12c0,1.1.9,2,2,2h16c1.1,0,2-.9,2-2V4c0-1.1-.9-2-2-2h-8l-2-2Z"/>
  <g id="_图层_2" data-name="图层 2">
    <g id="Discord_Logos" data-name="Discord Logos">
      <g id="Discord_Logo_-_Large_-_White" data-name="Discord Logo - Large - White">
        <path class="cls-1" d="m19.67,6.86c-.86-.4-1.78-.68-2.71-.84-.13.23-.24.47-.35.71-1-.15-2.01-.15-3.01,0-.1-.24-.22-.48-.35-.71-.94.16-1.85.44-2.72.84-1.72,2.54-2.18,5.02-1.95,7.46h0c1.01.74,2.13,1.31,3.33,1.67.27-.36.51-.75.71-1.15-.39-.15-.76-.32-1.12-.54.09-.07.19-.14.28-.21,2.11.99,4.55.99,6.66,0,.09.07.18.14.28.21-.36.21-.73.39-1.12.54.2.4.44.79.71,1.15,1.2-.36,2.32-.93,3.33-1.67h0c.27-2.83-.47-5.29-1.96-7.47Zm-6.75,5.96c-.65,0-1.18-.59-1.18-1.31s.52-1.32,1.18-1.32,1.2.59,1.19,1.32-.52,1.31-1.18,1.31Zm4.37,0c-.65,0-1.18-.59-1.18-1.31s.52-1.32,1.18-1.32,1.19.59,1.18,1.32-.52,1.31-1.18,1.31Z"/>
      </g>
    </g>
  </g>
</svg>