<?xml version="1.0" encoding="UTF-8"?>
<svg id="Layer_1" data-name="Layer 1" xmlns="http://www.w3.org/2000/svg" viewBox="0 0 21.65 17.82">
  <defs>
    <style>
      .cls-1 {
        fill: #fff;
      }

      .cls-2 {
        fill: #37474f;
      }

      .cls-3 {
        fill: #e57373;
      }

      .cls-4 {
        fill: #ffc107;
      }

      .cls-5 {
        fill: #00cfff;
      }

      .cls-6 {
        fill: #b0bec5;
      }

      .cls-7 {
        fill: #ff9800;
      }
    </style>
  </defs>
  <path class="cls-5" d="m17,16H2c-1.1,0-2-.9-2-2V2C0,.89.89,0,2,0h6l2,2h7c1.1,0,2,.9,2,2H2v10l2.14-8h17.07l-2.28,8.5c-.23.87-1.01,1.5-1.93,1.5Z"/>
  <g>
    <path class="cls-1" d="m18.59,12.83v1.26c0,.53-.19.98-.56,1.35-.37.37-.82.56-1.35.56h-5.52c-.53,0-.98-.19-1.35-.56-.37-.37-.56-.82-.56-1.35v-5.52c0-.53.19-.98.56-1.35.37-.37.82-.56,1.35-.56h5.52c.28,0,.54.06.78.17.07.03.11.08.12.15.01.08,0,.14-.06.19l-.32.32c-.06.06-.13.08-.21.05-.1-.03-.2-.04-.3-.04h-5.52c-.29,0-.54.1-.75.31-.21.21-.31.46-.31.75v5.52c0,.29.1.54.31.75.21.21.46.31.75.31h5.52c.29,0,.54-.1.75-.31.21-.21.31-.46.31-.75v-.84c0-.06.02-.11.06-.15l.42-.42c.07-.07.14-.08.23-.05.09.04.13.1.13.19h0Z"/>
    <path class="cls-3" d="m19.25,9.05l-.81-.81c-.12-.12-.32-.12-.46,0l-.37.37,1.27,1.27.37-.37c.12-.12.12-.32,0-.46Z"/>
    <path class="cls-7" d="m13.41,12.82l3.55-3.55,1.26,1.26-3.55,3.55-1.26-1.26Z"/>
    <path class="cls-6" d="m18.87,9.9l-.63.63-1.26-1.26.63-.63,1.26,1.26Z"/>
    <path class="cls-4" d="m13.42,12.83l-.43,1.67,1.67-.43-1.24-1.24Z"/>
    <path class="cls-2" d="m13.19,13.64l-.2.87.87-.2-.66-.66Z"/>
  </g>
</svg>