<?xml version="1.0" encoding="UTF-8"?>
<svg id="Layer_1" data-name="Layer 1" xmlns="http://www.w3.org/2000/svg" xmlns:xlink="http://www.w3.org/1999/xlink" viewBox="0 0 239.19 247.29">
  <defs>
    <style>
      .cls-1 {
        fill: url(#linear-gradient);
      }

      .cls-2 {
        fill: url(#linear-gradient-2);
        fill-opacity: .5;
      }

      .cls-3 {
        fill: url(#linear-gradient-3);
        fill-rule: evenodd;
      }
    </style>
    <linearGradient id="linear-gradient" x1=".03" y1="195.71" x2="175.18" y2="195.71" gradientUnits="userSpaceOnUse">
      <stop offset=".08" stop-color="#9945ff"/>
      <stop offset=".3" stop-color="#8752f3"/>
      <stop offset=".5" stop-color="#5497d5"/>
      <stop offset=".6" stop-color="#43b4ca"/>
      <stop offset=".72" stop-color="#28e0b9"/>
      <stop offset=".97" stop-color="#19fb9b"/>
    </linearGradient>
    <linearGradient id="linear-gradient-2" x1="0" y1="157.66" x2="99.12" y2="157.66" xlink:href="#linear-gradient"/>
    <linearGradient id="linear-gradient-3" x1="-3" y1="123.64" x2="222.3" y2="123.64" gradientTransform="translate(236.2) rotate(-180) scale(1 -1)" xlink:href="#linear-gradient"/>
  </defs>
  <path class="cls-1" d="m3.41,241.89c-1.07-1.07-1.92-2.34-2.5-3.74s-.88-2.9-.88-4.41v-76.09c0-3.05,1.22-5.98,3.38-8.13,2.16-2.16,5.09-3.37,8.14-3.37,3.05,0,5.98,1.21,8.14,3.36,2.16,2.16,3.38,5.08,3.39,8.13v64.56s140.66,0,140.66,0c3.04.02,5.95,1.25,8.09,3.41,2.14,2.16,3.34,5.08,3.34,8.12,0,3.04-1.2,5.96-3.34,8.12-2.14,2.16-5.05,3.38-8.09,3.41H11.56c-1.51,0-3.01-.3-4.41-.88-1.4-.58-2.67-1.43-3.74-2.5h0Z"/>
  <path class="cls-2" d="m3.38,241.86c1.07,1.07,2.34,1.92,3.74,2.5s2.9.88,4.41.88h76.09c3.05,0,5.98-1.22,8.13-3.39,2.16-2.16,3.37-5.09,3.37-8.14,0-3.05-1.21-5.98-3.36-8.14-2.16-2.16-5.08-3.38-8.13-3.39H23.06s0-140.66,0-140.66c-.02-3.04-1.25-5.95-3.41-8.09-2.16-2.14-5.08-3.34-8.12-3.34-3.04,0-5.96,1.2-8.12,3.34S.02,78.48,0,81.52v152.18c0,1.52.3,3.01.88,4.41.58,1.4,1.43,2.67,2.5,3.74h0Z"/>
  <path class="cls-3" d="m92.38,54.6c-2.17,0-3.92,1.76-3.92,3.92s1.76,3.92,3.92,3.92,3.92-1.76,3.92-3.92-1.76-3.92-3.92-3.92m106.85,125.51c-8.71-26.8-33.28-19.55-59.88-29.08-18.36-6.58-33.52-18.4-41.48-42.14-.66-1.97-1.26-3.9-1.85-5.79,8.63,11.64,28.92,34.07,60.43,39.71,43.07,7.71,42.77,37.29,42.77,37.29Zm-13.37-14.93c.18,23.39-16.2,32.1-15.34,54.65-25.9-21.18.99-33.83,15.34-54.65Zm4.09,4.09c5.45,7.94,6.26,17.18,5.66,23-1.37,13.24-7.85,25.93-8.34,42.57-26.52-16.33,3.71-37.66,2.68-65.57Zm3.74-39.34c40.1,34.24,26.45,82.15,16.33,117.35-29.74-28.61,1.19-56.37-10.25-92.15,6.06,5.61,9.61,19.16,11.36,30.79.8-20.24-3.61-39.84-17.45-55.99ZM229.85,12.38c12.48,20.18,15.78,52.01-11.21,60.69-25.35,8.15-63.47,2.64-84.42,15.53,22.87-27.33,99.77-23.84,95.64-76.23Zm.24,58.57c1.4,24.18-18.24,28.39-39.15,26.9,9.75,4.54,18.24,5.74,25.01,5.5-14.55,13.93-33.66,10.61-49.09.83,0,0,6.83,7.35,23.98,15.87-23.93,6.79-39.96-1.35-50.39-20.88,30.37-24.98,71.18-6.47,89.64-28.22ZM196.54,0c16.14,18.93,16.45,36.74,2.83,48.14-17.03,14.25-40.91,16.77-60.24,28.57,16.41-23.41,66.1-33.37,57.42-76.71Zm-125.83,57.38c10.8-15.84,33.44-15.23,46.58-3.14,5.77,5.31,9.87,11.16,13.99,17.38-8.38-7.13-17.61-12.43-17.61-12.43,12.31,22.73-4.74,31.94-20.24,35.67-5.25-15.73-12.51-27.49-44.76-32.17-13.19-1.91-34.78-4.4-34.78-4.4l56.81-.92Z"/>
</svg>