<?xml version="1.0" encoding="UTF-8"?>
<svg id="Layer_1" data-name="Layer 1" xmlns="http://www.w3.org/2000/svg" xmlns:xlink="http://www.w3.org/1999/xlink" viewBox="0 0 14.41 15.82">
  <defs>
    <style>
      .cls-1 {
        fill: url(#linear-gradient);
        fill-rule: evenodd;
      }
    </style>
    <linearGradient id="linear-gradient" x1="6" y1="7.91" x2="20.41" y2="7.91" gradientTransform="translate(20.41) rotate(-180) scale(1 -1)" gradientUnits="userSpaceOnUse">
      <stop offset=".08" stop-color="#9945ff"/>
      <stop offset=".3" stop-color="#8752f3"/>
      <stop offset=".5" stop-color="#5497d5"/>
      <stop offset=".6" stop-color="#43b4ca"/>
      <stop offset=".72" stop-color="#28e0b9"/>
      <stop offset=".97" stop-color="#19fb9b"/>
    </linearGradient>
  </defs>
  <path class="cls-1" d="m5.02,3.49c-.14,0-.25.11-.25.25s.11.25.25.25.25-.11.25-.25-.11-.25-.25-.25m6.83,8.03c-.56-1.71-2.13-1.25-3.83-1.86-1.17-.42-2.14-1.18-2.65-2.7-.04-.13-.08-.25-.12-.37.55.74,1.85,2.18,3.87,2.54,2.76.49,2.74,2.39,2.74,2.39Zm-.86-.96c.01,1.5-1.04,2.05-.98,3.5-1.66-1.35.06-2.16.98-3.5Zm.26.26c.35.51.4,1.1.36,1.47-.09.85-.5,1.66-.53,2.72-1.7-1.04.24-2.41.17-4.19Zm.24-2.52c2.56,2.19,1.69,5.25,1.04,7.51-1.9-1.83.08-3.61-.66-5.89.39.36.61,1.23.73,1.97.05-1.29-.23-2.55-1.12-3.58ZM13.81.79c.8,1.29,1.01,3.33-.72,3.88-1.62.52-4.06.17-5.4.99,1.46-1.75,6.38-1.52,6.12-4.88Zm.02,3.75c.09,1.55-1.17,1.82-2.5,1.72.62.29,1.17.37,1.6.35-.93.89-2.15.68-3.14.05,0,0,.44.47,1.53,1.01-1.53.43-2.56-.09-3.22-1.34,1.94-1.6,4.55-.41,5.73-1.8ZM11.68,0c1.03,1.21,1.05,2.35.18,3.08-1.09.91-2.62,1.07-3.85,1.83,1.05-1.5,4.23-2.13,3.67-4.91ZM3.63,3.67c.69-1.01,2.14-.97,2.98-.2.37.34.63.71.89,1.11-.54-.46-1.13-.8-1.13-.8.79,1.45-.3,2.04-1.29,2.28-.34-1.01-.8-1.76-2.86-2.06-.84-.12-2.22-.28-2.22-.28l3.63-.06Z"/>
</svg>