<?xml version="1.0" encoding="UTF-8"?>
<svg id="Layer_1" data-name="Layer 1" xmlns="http://www.w3.org/2000/svg" xmlns:xlink="http://www.w3.org/1999/xlink" viewBox="0 0 18.67 23.05">
  <defs>
    <style>
      .cls-1 {
        fill: url(#linear-gradient-4);
      }

      .cls-1, .cls-2, .cls-3, .cls-4, .cls-5, .cls-6, .cls-7, .cls-8 {
        fill-rule: evenodd;
      }

      .cls-2 {
        fill: url(#linear-gradient-2);
      }

      .cls-3 {
        fill: url(#linear-gradient);
      }

      .cls-4 {
        fill: url(#linear-gradient-6);
      }

      .cls-5 {
        fill: url(#linear-gradient-5);
      }

      .cls-6 {
        fill: #14f195;
      }

      .cls-7 {
        fill: url(#linear-gradient-7);
      }

      .cls-8 {
        fill: url(#linear-gradient-3);
      }
    </style>
    <linearGradient id="linear-gradient" x1="4.56" y1="15.53" x2="6.83" y2="15.53" gradientUnits="userSpaceOnUse">
      <stop offset=".08" stop-color="#9945ff"/>
      <stop offset=".3" stop-color="#8752f3"/>
      <stop offset=".5" stop-color="#5497d5"/>
      <stop offset=".6" stop-color="#43b4ca"/>
      <stop offset=".72" stop-color="#28e0b9"/>
      <stop offset=".97" stop-color="#19fb9b"/>
    </linearGradient>
    <linearGradient id="linear-gradient-2" x1="5.58" y1="17.26" x2="11.91" y2="17.26" xlink:href="#linear-gradient"/>
    <linearGradient id="linear-gradient-3" x1="6.94" y1="19.09" x2="11.53" y2="19.09" xlink:href="#linear-gradient"/>
    <linearGradient id="linear-gradient-4" x1="6.33" y1="12.23" x2="8.41" y2="12.23" xlink:href="#linear-gradient"/>
    <linearGradient id="linear-gradient-5" x1="4.63" y1="13.07" x2="5.5" y2="13.07" xlink:href="#linear-gradient"/>
    <linearGradient id="linear-gradient-6" x1="0" y1="6.55" x2="11.21" y2="6.55" xlink:href="#linear-gradient"/>
    <linearGradient id="linear-gradient-7" x1="8.24" y1="11.51" x2="11.02" y2="11.51" xlink:href="#linear-gradient"/>
  </defs>
  <g id="right">
    <path class="cls-6" d="m12.63,11.29c-.38.21-.76.71-.79,1.69-.16.06-.23.16-.64-.33.48.73.8.98.96.74-.1-1.03.06-1.73.48-2.09Z"/>
    <path class="cls-6" d="m14.25,12.32l-.1,1.91-.43-.48c.2.33.41.72.62,1.03l-.09-2.46Z"/>
    <path class="cls-6" d="m13.05,16.29l1.11,2.97c.03-.62.11-1.53.24-2.73-.11.58-.22,1.15-.34,1.73l-1.02-1.97Z"/>
    <path class="cls-6" d="m11.3,15.99c.49,1.65.97,3.31,1.46,4.96l.62-1.04c-.08.07-.53.45-.55.47,0,0-.51-1.23-1.52-4.38Z"/>
    <path class="cls-6" d="m13.18,8.11c-1.69-2.65-3.7-8.29-.08-5.08-.33-1.23-.92-1.73-1.56-2.27.58.63.96,1.11,1.11,1.59-.34-.33-.9-.6-1.34-.57.05-.19.24-.32.37-.37-.97.05-1.2,1.18-.6,2.92-.44-.48-.73-1.12-.97-1.73.12,1.41,2.03,4.37,3.07,5.5Z"/>
    <path class="cls-6" d="m11.36,8.23c3.83.33,6.67,1.5,6.67,2.58,0,1.39-2.49,1.89-3.48,2.28,2.64-.47,4.11-1.13,4.11-2.25s-3.14-2.36-7.31-2.61Z"/>
  </g>
  <g id="left">
    <path class="cls-3" d="m4.79,19.26l2.04-5.38-.85-2.08-.26,2.03-1.17,2.69c.11.92.18,1.81.24,2.73h0Z"/>
    <path class="cls-2" d="m9.83,13.84l-.35-.26-2.42.67-1.48,5.66c.21.35.41.69.62,1.04l1.84-6.29,1.44-1.09,2.42.67-2.07-.41Z"/>
    <path class="cls-8" d="m9.36,15.46c.34.08.57.03.69-.16-.23.13-.47.12-.69-.04-.24.19-.41.14-.68.04l-.16-.06c-.09-.03-.19-.07-.31-.1l-1.26,6.54c.86.49,1.67.92,2.54,1.37l2.05-1.06c-.71.26-1.32.49-2.05.76l-.13-7.29Z"/>
    <path class="cls-1" d="m8.34,11.18c-.16-.02-2.31-.08-1.98.19.69.55.38,1.83.46,1.9.47.35,1.91-2.05,1.51-2.09h0Z"/>
    <polygon class="cls-5" points="4.63 14.77 5.5 13.19 5.47 11.38 4.71 12.32 4.65 14.11 4.65 14.21 4.64 14.32 4.63 14.77"/>
    <path class="cls-4" d="m10.88,7.03c-1.22.15-2.49.34-3.67.66-.49.13-1,.29-1.47.49-.04.02-.01,0,.01,0,.83-.12,1.69-.21,2.53-.23.36,0,.79,0,1.15.04.03,0,.06,0,.09.02-2.72.17-14.07,1.95-5.42,5.08C1.48,12.63.02,11.97,0,10.84c-.02-1.49,3.46-2.25,4.68-2.48.14-.03.27-.07.41-.11.05-.01.07-.02.12-.04.11-.05.05-.04-.03-.04-.07,0-.21,0-.15-.1.03-.05.07-.1.1-.15.37-.59.68-1.2.96-1.83.04-.09,1.09-2.67,1.46-3.53.04-.09.09-.2.13-.29.05-.11.27-.55.34-.69.25-.46.6-1,1.05-1.31.72-.5,1.46-.23,2.11.23-.58-.31-1.31-.49-1.82.04-.21.22-.34.52-.4.8-.03.12.04.12-.04.28-.03.07-.03.1-.04.17-.06.64.03,1.34.18,1.96-.3-.2-.47-.39-.52-.57-.1.86.36,1.37,1.37,1.54-1.39.26-2.34,1.03-2.82,2.31,1.24-.25,2.53-.25,3.77,0h0Z"/>
    <path class="cls-7" d="m8.4,12.89c.36-.02.2-.28.28-.65-.1.1-.72.65-.28.65h0Zm.71-.66c-.32.34-.16.76.33.77.42,0,1.01-.17,1.19-.15.07,0,.12.05.15.12.03.07.02.14-.02.2.19-.09.3-.31.26-.54-.06-.4-.33-.31-.6-.55-.58-.6-.55-1.89-.64-2.21-.02.1-.04.24-.05.39-.06.6-.13,1.51-.62,1.97h0Z"/>
  </g>
</svg>