<?xml version="1.0" encoding="UTF-8"?>
<svg id="Layer_1" data-name="Layer 1" xmlns="http://www.w3.org/2000/svg" xmlns:xlink="http://www.w3.org/1999/xlink" viewBox="0 0 23.19 16">
  <defs>
    <style>
      .cls-1 {
        fill: #fff;
      }

      .cls-2 {
        fill: url(#linear-gradient);
      }
    </style>
    <linearGradient id="linear-gradient" x1="294" y1="-376" x2="317.19" y2="-376" gradientTransform="translate(-294 -368) scale(1 -1)" gradientUnits="userSpaceOnUse">
      <stop offset="0" stop-color="#ffa588"/>
      <stop offset=".27" stop-color="#fcb371"/>
      <stop offset=".84" stop-color="#f4d837"/>
      <stop offset="1" stop-color="#f1e425"/>
    </linearGradient>
  </defs>
  <path class="cls-2" d="m20.89,12.06c-.62,0-1.21-.24-1.65-.69l-3.44-3.44c-.35-.35-.57-.78-.65-1.25-.05-.27-.05-.56,0-.83h-1.02c-.25,0-.35.16-.39.26s-.08.29.09.47l1.49,1.49c.35.35.57.78.65,1.25.08.43.02.88-.15,1.3-.17.41-.45.77-.81,1.02-.39.27-.86.42-1.35.42h-.05c-.62,0-1.21-.24-1.65-.69l-.33-.33c-.16.23-.35.43-.58.59-.39.27-.86.42-1.35.42-.62,0-1.21-.24-1.65-.69L2.65,5.97c-.08-.08-.19-.12-.3-.12-.25,0-.35.16-.39.26s-.08.29.09.47l1.49,1.49c.35.35.57.78.65,1.25.08.43.02.88-.15,1.3-.17.41-.45.77-.81,1.02-.39.27-.86.42-1.35.42h-.68c-.53,0-.96-.43-.96-.96s.43-.96.96-.96h.67c.25,0,.35-.16.39-.26s.08-.29-.09-.47l-1.49-1.49c-.35-.35-.57-.78-.65-1.25-.08-.43-.02-.88.15-1.3.17-.41.45-.77.81-1.02.39-.27.86-.42,1.35-.42.62,0,1.21.24,1.65.69l5.4,5.4c.08.08.19.12.3.12.25,0,.35-.16.39-.26s.08-.29-.09-.46l-3.85-3.85c-.37-.37-.37-.98,0-1.35s.98-.37,1.35,0l3.85,3.85s0,0,0,0l1.95,1.95c.08.08.19.12.3.12h.05c.25,0,.35-.16.39-.26s.08-.29-.09-.47l-1.49-1.49c-.35-.35-.57-.78-.65-1.25-.08-.43-.02-.88.15-1.3.17-.41.45-.77.81-1.02.39-.27.86-.42,1.35-.42h3.89c.53,0,.96.43.96.96s-.43.96-.96.96h-.57c-.25,0-.35.16-.39.26s-.08.29.09.47l3.44,3.44c.08.08.19.12.3.12.22,0,.39-.18.39-.39,0-.53.43-.96.96-.96s.96.43.96.96c0,1.27-1.03,2.31-2.31,2.31h0Z"/>
  <path class="cls-1" d="m20.89,11.23c-.4,0-.78-.16-1.06-.44l-3.44-3.44c-.44-.44-.56-1.07-.32-1.64.12-.29.32-.53.57-.69h-2.5c-.52,0-.97.3-1.17.78-.2.48-.09,1.01.27,1.38l1.49,1.49c.44.44.56,1.07.32,1.64s-.77.93-1.39.93h-.05c-.4,0-.78-.16-1.06-.44l-1.37-1.37c.06.29.03.6-.09.89-.24.57-.77.93-1.39.93-.4,0-.78-.16-1.06-.44L3.23,5.39c-.24-.24-.56-.37-.89-.37-.52,0-.97.3-1.17.78-.2.48-.09,1.01.27,1.38l1.49,1.49c.44.44.56,1.07.32,1.64s-.77.93-1.39.93h-.67c-.07,0-.12-.05-.12-.12s.05-.12.12-.12h.67c.52,0,.97-.3,1.17-.78s.09-1.01-.27-1.38l-1.49-1.49c-.44-.43-.56-1.06-.32-1.63.24-.57.77-.93,1.39-.93.4,0,.78.16,1.06.44l5.4,5.4c.24.24.56.37.89.37.52,0,.97-.3,1.17-.78.2-.48.1-1.01-.27-1.37l-3.85-3.85s-.05-.12,0-.17.12-.05.17,0l3.85,3.85h0s1.95,1.95,1.95,1.95c.24.24.56.37.89.37h.05c.52,0,.97-.3,1.17-.78.2-.48.09-1.01-.27-1.38l-1.49-1.49c-.44-.44-.56-1.07-.32-1.64s.77-.93,1.39-.93h3.89c.07,0,.12.05.12.12s-.05.12-.12.12h-.57c-.52,0-.97.3-1.17.78-.2.48-.09,1.01.27,1.38l3.44,3.44c.24.24.56.37.89.37.68,0,1.23-.55,1.23-1.23,0-.07.05-.12.12-.12s.12.05.12.12c0,.81-.66,1.47-1.47,1.47Z"/>
</svg>